<svg xmlns="http://www.w3.org/2000/svg" xmlns:xlink="http://www.w3.org/1999/xlink" width="1080" zoomAndPan="magnify" viewBox="0 0 810 809.999993" height="1080" preserveAspectRatio="xMidYMid meet" version="1.0"><defs><g/></defs><g fill="#8ac44f" fill-opacity="1"><g transform="translate(78.159367, 569.36156)"><g><path d="M 228.65625 -215.5625 L 154.90625 -215.5625 L 154.90625 0 L 86.828125 0 L 86.828125 -215.5625 L 13.09375 -215.5625 L 13.09375 -283.640625 L 228.65625 -283.640625 Z M 228.65625 -215.5625 "/></g></g></g><g fill="#8ac44f" fill-opacity="1"><g transform="translate(315.977905, 569.36156)"><g><path d="M 73.75 -304.140625 L 73.75 -252.65625 L 13.09375 -252.65625 L 13.09375 -304.140625 Z M 74.1875 -224.28125 L 74.1875 0 L 13.09375 0 L 13.09375 -224.28125 Z M 74.1875 -224.28125 "/></g></g></g><g fill="#8ac44f" fill-opacity="1"><g transform="translate(403.250705, 569.36156)"><g><path d="M 229.53125 -102.546875 C 229.820312 -96.429688 229.820312 -92.796875 229.53125 -91.640625 L 65.453125 -92.078125 C 67.773438 -85.378906 71.992188 -78.976562 78.109375 -72.875 C 89.453125 -62.113281 102.539062 -56.734375 117.375 -56.734375 C 133.082031 -57.304688 146.175781 -62.832031 156.65625 -73.3125 L 158.40625 -75.046875 L 215.125 -57.15625 C 202.613281 -37.664062 189.523438 -23.703125 175.859375 -15.265625 C 160.429688 -5.378906 141.082031 -0.289062 117.8125 0 C 86.976562 0.289062 60.507812 -10.472656 38.40625 -32.296875 C 16.289062 -54.109375 5.085938 -80.578125 4.796875 -111.703125 C 4.503906 -142.546875 15.269531 -169.019531 37.09375 -191.125 C 58.90625 -213.226562 85.378906 -224.425781 116.515625 -224.71875 C 147.347656 -225.007812 173.816406 -214.25 195.921875 -192.4375 C 218.035156 -170.613281 229.238281 -144.140625 229.53125 -113.015625 Z M 116.9375 -167.5625 C 101.519531 -167.5625 88.429688 -162.179688 77.671875 -151.421875 C 72.140625 -145.304688 68.210938 -139.195312 65.890625 -133.09375 L 168.4375 -133.09375 C 166.101562 -139.195312 162.03125 -145.453125 156.21875 -151.859375 C 145.164062 -162.328125 132.070312 -167.5625 116.9375 -167.5625 Z M 116.9375 -167.5625 "/></g></g></g><g fill="#8ac44f" fill-opacity="1"><g transform="translate(637.57827, 569.36156)"><g><path d="M 13.09375 -328.578125 L 81.15625 -328.578125 L 81.15625 -101.671875 L 13.09375 -101.671875 Z M 13.09375 0 L 13.09375 -68.078125 L 81.15625 -68.078125 L 81.15625 0 Z M 13.09375 0 "/></g></g></g></svg>